<svg width="170" height="50" viewBox="0 0 170 50" fill="none" xmlns="http://www.w3.org/2000/svg">
<rect width="170" height="50" rx="15" fill="#8CBDEB"/>
<path d="M46.7667 16H48.2V24.3294H56V25.6706H48.2V34H46.7667V25.6706H39V24.3294H46.7667V16Z" fill="#0E0E0E"/>
<path d="M67.8195 32V18.04H76.4395V20.3H70.6195V23.88H75.0795V26.1H70.6195V32H67.8195ZM89.1249 26.46C89.1249 29.94 86.5649 32.18 83.3449 32.18C80.1449 32.18 77.7249 29.94 77.7249 26.46C77.7249 22.96 80.2249 20.74 83.4249 20.74C86.6249 20.74 89.1249 22.96 89.1249 26.46ZM80.5649 26.46C80.5649 28.66 81.8449 29.74 83.3449 29.74C84.8249 29.74 86.2449 28.66 86.2449 26.46C86.2449 24.24 84.8649 23.18 83.3849 23.18C81.9049 23.18 80.5649 24.24 80.5649 26.46ZM91.1788 32V17.2H93.9788V32H91.1788ZM96.7452 32V17.2H99.5452V32H96.7452ZM113.012 26.46C113.012 29.94 110.452 32.18 107.232 32.18C104.032 32.18 101.612 29.94 101.612 26.46C101.612 22.96 104.112 20.74 107.312 20.74C110.512 20.74 113.012 22.96 113.012 26.46ZM104.452 26.46C104.452 28.66 105.732 29.74 107.232 29.74C108.712 29.74 110.132 28.66 110.132 26.46C110.132 24.24 108.752 23.18 107.272 23.18C105.792 23.18 104.452 24.24 104.452 26.46ZM117.086 32L113.826 20.92H116.666L118.626 29.36L120.746 20.92H123.706L125.786 29.34L127.746 20.92H130.426L127.186 32H124.166L122.146 24.26L120.126 32H117.086Z" fill="#0E0E0E"/>
</svg>
