<svg width="170" height="50" viewBox="0 0 170 50" fill="none" xmlns="http://www.w3.org/2000/svg">
<rect x="1" y="1" width="168" height="48" rx="14" stroke="#8CBDEB" stroke-width="2"/>
<path d="M30.4444 22.7778H36.6666M30.4444 26.3333H34.8889M39.3333 32.1111L42 33L40.3111 27.9333C40.3111 27.9333 41.1111 26.7778 41.1111 24.5555C41.1111 22.2472 40.0759 20.1806 38.4444 18.7947M33.5555 17C29.3827 17 26 20.3827 26 24.5555C26 28.7283 29.3827 32.1111 33.5555 32.1111C35.853 32.1111 36.9333 31.3111 36.9333 31.3111" stroke="#8CBDEB" stroke-width="1.5" stroke-linecap="round" stroke-linejoin="round"/>
<path d="M53.589 32V18.04H56.769L61.209 28.42L65.649 18.04H68.809V32H66.009V22.92L62.269 32H60.149L56.389 22.92V32H53.589ZM76.3373 23.04C74.9973 23.04 73.9373 23.9 73.7173 25.42H78.9773C78.9373 23.96 77.7773 23.04 76.3373 23.04ZM81.5973 28.52C80.9973 30.56 79.1573 32.18 76.4173 32.18C73.1973 32.18 70.8573 29.94 70.8573 26.46C70.8573 22.96 73.1373 20.74 76.4173 20.74C79.6173 20.74 81.8773 22.92 81.8773 26.22C81.8773 26.58 81.8573 26.94 81.7973 27.3H73.6973C73.8373 28.94 74.9573 29.86 76.3573 29.86C77.5573 29.86 78.2173 29.26 78.5773 28.52H81.5973ZM92.521 28.84C92.521 30.74 90.861 32.18 88.161 32.18C85.381 32.18 83.441 30.56 83.321 28.5H86.141C86.241 29.34 87.021 29.98 88.141 29.98C89.241 29.98 89.841 29.48 89.841 28.84C89.841 26.86 83.581 28.12 83.581 24.06C83.581 22.22 85.221 20.74 87.961 20.74C90.641 20.74 92.261 22.2 92.421 24.4H89.741C89.661 23.54 88.981 22.96 87.881 22.96C86.841 22.96 86.301 23.38 86.301 24.02C86.301 26.04 92.441 24.78 92.521 28.84ZM103.419 28.84C103.419 30.74 101.759 32.18 99.0595 32.18C96.2795 32.18 94.3395 30.56 94.2195 28.5H97.0395C97.1395 29.34 97.9195 29.98 99.0395 29.98C100.139 29.98 100.739 29.48 100.739 28.84C100.739 26.86 94.4795 28.12 94.4795 24.06C94.4795 22.22 96.1195 20.74 98.8595 20.74C101.539 20.74 103.159 22.2 103.319 24.4H100.639C100.559 23.54 99.8795 22.96 98.7795 22.96C97.7395 22.96 97.1995 23.38 97.1995 24.02C97.1995 26.04 103.339 24.78 103.419 28.84ZM104.998 26.42C104.998 22.96 107.238 20.74 110.058 20.74C111.838 20.74 113.058 21.58 113.718 22.5V20.92H116.538V32H113.718V30.38C113.058 31.34 111.798 32.18 110.038 32.18C107.238 32.18 104.998 29.88 104.998 26.42ZM113.718 26.46C113.718 24.36 112.318 23.2 110.778 23.2C109.278 23.2 107.858 24.32 107.858 26.42C107.858 28.52 109.278 29.72 110.778 29.72C112.318 29.72 113.718 28.56 113.718 26.46ZM118.553 26.42C118.553 22.96 120.793 20.74 123.613 20.74C125.353 20.74 126.613 21.54 127.273 22.5V20.92H130.093V32.08C130.093 35.08 128.253 37.46 124.613 37.46C121.493 37.46 119.313 35.9 119.033 33.36H121.813C122.093 34.36 123.133 35.02 124.533 35.02C126.073 35.02 127.273 34.14 127.273 32.08V30.36C126.613 31.32 125.353 32.18 123.613 32.18C120.793 32.18 118.553 29.88 118.553 26.42ZM127.273 26.46C127.273 24.36 125.873 23.2 124.333 23.2C122.833 23.2 121.413 24.32 121.413 26.42C121.413 28.52 122.833 29.72 124.333 29.72C125.873 29.72 127.273 28.56 127.273 26.46ZM137.587 23.04C136.247 23.04 135.187 23.9 134.967 25.42H140.227C140.187 23.96 139.027 23.04 137.587 23.04ZM142.847 28.52C142.247 30.56 140.407 32.18 137.667 32.18C134.447 32.18 132.107 29.94 132.107 26.46C132.107 22.96 134.387 20.74 137.667 20.74C140.867 20.74 143.127 22.92 143.127 26.22C143.127 26.58 143.107 26.94 143.047 27.3H134.947C135.087 28.94 136.207 29.86 137.607 29.86C138.807 29.86 139.467 29.26 139.827 28.52H142.847Z" fill="#69ABE9"/>
</svg>
