<svg width="110" height="20" viewBox="0 0 110 20" fill="none" xmlns="http://www.w3.org/2000/svg">
<path d="M5.45615 7.28362H11.6784M5.45615 10.8392H9.90058M14.345 16.617L17.0117 17.5059L15.3228 12.4392C15.3228 12.4392 16.1228 11.2836 16.1228 9.06139C16.1228 6.75303 15.0876 4.68645 13.4561 3.30055M8.56725 1.50586C4.39445 1.50586 1.01172 4.88859 1.01172 9.06139C1.01172 13.2342 4.39445 16.6169 8.56725 16.6169C10.8648 16.6169 11.945 15.817 11.945 15.817" stroke="#333333" stroke-width="1.5" stroke-linecap="round" stroke-linejoin="round"/>
<path d="M28.618 15.0059V3.88586H30.586L34.49 12.6059L38.378 3.88586H40.33V15.0059H38.506V7.38986L35.114 15.0059H33.85L30.442 7.38986V15.0059H28.618ZM46.4393 7.58186C45.2073 7.58186 44.2153 8.41386 44.0233 9.80586H48.9033C48.8713 8.44586 47.7993 7.58186 46.4393 7.58186ZM50.5673 12.3819C50.0713 13.9179 48.6793 15.1499 46.5193 15.1499C43.9913 15.1499 42.1193 13.3579 42.1193 10.5899C42.1193 7.82186 43.9113 6.04586 46.5193 6.04586C49.0313 6.04586 50.8073 7.78986 50.8073 10.3819C50.8073 10.6859 50.7913 10.9739 50.7433 11.2779H44.0073C44.1353 12.7339 45.1753 13.6139 46.5193 13.6139C47.6393 13.6139 48.2633 13.0699 48.5993 12.3819H50.5673ZM59.1783 12.5419C59.1783 14.0299 57.8823 15.1499 55.8023 15.1499C53.6903 15.1499 52.2023 13.9019 52.1223 12.3019H54.0103C54.0743 13.0219 54.7623 13.6139 55.7703 13.6139C56.8263 13.6139 57.3863 13.1659 57.3863 12.5579C57.3863 10.8299 52.2663 11.8219 52.2663 8.58986C52.2663 7.18186 53.5783 6.04586 55.6583 6.04586C57.6583 6.04586 58.9703 7.11786 59.0663 8.87786H57.2423C57.1783 8.10986 56.5863 7.58186 55.5943 7.58186C54.6183 7.58186 54.1063 7.98186 54.1063 8.57386C54.1063 10.3499 59.0823 9.35786 59.1783 12.5419ZM67.7252 12.5419C67.7252 14.0299 66.4292 15.1499 64.3492 15.1499C62.2372 15.1499 60.7492 13.9019 60.6692 12.3019H62.5572C62.6212 13.0219 63.3092 13.6139 64.3172 13.6139C65.3732 13.6139 65.9332 13.1659 65.9332 12.5579C65.9332 10.8299 60.8132 11.8219 60.8132 8.58986C60.8132 7.18186 62.1252 6.04586 64.2052 6.04586C66.2052 6.04586 67.5172 7.11786 67.6132 8.87786H65.7892C65.7252 8.10986 65.1332 7.58186 64.1412 7.58186C63.1652 7.58186 62.6532 7.98186 62.6532 8.57386C62.6532 10.3499 67.6292 9.35786 67.7252 12.5419ZM69.0881 10.5579C69.0881 7.83786 70.9281 6.04586 73.2481 6.04586C74.7361 6.04586 75.7601 6.74986 76.3041 7.46986V6.18986H78.1441V15.0059H76.3041V13.6939C75.7441 14.4459 74.6881 15.1499 73.2161 15.1499C70.9281 15.1499 69.0881 13.2779 69.0881 10.5579ZM76.3041 10.5899C76.3041 8.70186 75.0081 7.62986 73.6321 7.62986C72.2721 7.62986 70.9601 8.65386 70.9601 10.5579C70.9601 12.4619 72.2721 13.5659 73.6321 13.5659C75.0081 13.5659 76.3041 12.4939 76.3041 10.5899ZM79.9318 10.5579C79.9318 7.83786 81.7718 6.04586 84.0918 6.04586C85.5318 6.04586 86.6038 6.71786 87.1478 7.46986V6.18986H88.9878V15.1499C88.9878 17.5499 87.4358 19.3579 84.6838 19.3579C82.3318 19.3579 80.5878 18.1899 80.3638 16.2379H82.1718C82.4438 17.1499 83.4198 17.7739 84.6838 17.7739C86.0918 17.7739 87.1478 16.9099 87.1478 15.1499V13.6779C86.5878 14.4299 85.5318 15.1499 84.0918 15.1499C81.7718 15.1499 79.9318 13.2779 79.9318 10.5579ZM87.1478 10.5899C87.1478 8.70186 85.8518 7.62986 84.4758 7.62986C83.1158 7.62986 81.8038 8.65386 81.8038 10.5579C81.8038 12.4619 83.1158 13.5659 84.4758 13.5659C85.8518 13.5659 87.1478 12.4939 87.1478 10.5899ZM95.0956 7.58186C93.8636 7.58186 92.8716 8.41386 92.6796 9.80586H97.5596C97.5276 8.44586 96.4556 7.58186 95.0956 7.58186ZM99.2236 12.3819C98.7276 13.9179 97.3356 15.1499 95.1756 15.1499C92.6476 15.1499 90.7756 13.3579 90.7756 10.5899C90.7756 7.82186 92.5676 6.04586 95.1756 6.04586C97.6876 6.04586 99.4636 7.78986 99.4636 10.3819C99.4636 10.6859 99.4476 10.9739 99.3996 11.2779H92.6636C92.7916 12.7339 93.8316 13.6139 95.1756 13.6139C96.2956 13.6139 96.9196 13.0699 97.2556 12.3819H99.2236ZM107.835 12.5419C107.835 14.0299 106.539 15.1499 104.459 15.1499C102.347 15.1499 100.859 13.9019 100.779 12.3019H102.667C102.731 13.0219 103.419 13.6139 104.427 13.6139C105.483 13.6139 106.043 13.1659 106.043 12.5579C106.043 10.8299 100.923 11.8219 100.923 8.58986C100.923 7.18186 102.235 6.04586 104.315 6.04586C106.315 6.04586 107.627 7.11786 107.723 8.87786H105.899C105.835 8.10986 105.243 7.58186 104.251 7.58186C103.275 7.58186 102.763 7.98186 102.763 8.57386C102.763 10.3499 107.739 9.35786 107.835 12.5419Z" fill="#333333"/>
</svg>
