<svg width="19" height="18" viewBox="0 0 19 18" fill="none" xmlns="http://www.w3.org/2000/svg">
<path d="M9.74453 18C8.22554 18 6.87805 17.8001 5.70206 17.4002C4.53097 17.0051 3.54363 16.4218 2.74004 15.6503C1.93644 14.8836 1.3264 13.9428 0.909901 12.8279C0.493405 11.7131 0.285156 10.4406 0.285156 9.01058C0.285156 7.61819 0.495854 6.36692 0.917251 5.25676C1.33865 4.14661 1.95114 3.2011 2.75474 2.42023C3.56323 1.63465 4.54567 1.03489 5.70206 0.620933C6.85845 0.206978 8.17164 0 9.64163 0C11.0479 0 12.2876 0.211682 13.3607 0.635045C14.4338 1.05841 15.3354 1.63936 16.0655 2.37789C16.8005 3.11642 17.3542 3.96315 17.7266 4.91807C18.099 5.87299 18.2852 6.88201 18.2852 7.94512C18.2852 8.68836 18.2362 9.41513 18.1382 10.1254C18.0402 10.831 17.8589 11.4708 17.5943 12.0447C17.3346 12.6139 16.9573 13.0702 16.4624 13.4136C15.9724 13.7523 15.3354 13.9287 14.5514 13.9428C14.1349 13.9569 13.7306 13.9098 13.3386 13.8016C12.9467 13.6935 12.6135 13.5194 12.3391 13.2795C12.0647 13.0349 11.8981 12.7244 11.8393 12.3481H11.7511C11.6335 12.6256 11.4375 12.8844 11.1631 13.1243C10.8887 13.3595 10.5383 13.5476 10.112 13.6888C9.69063 13.8252 9.20063 13.8816 8.64204 13.8581C8.02464 13.8346 7.4685 13.7005 6.9736 13.4559C6.4787 13.2113 6.05486 12.8726 5.70206 12.4398C5.35416 12.0071 5.08712 11.4943 4.90092 10.9016C4.71472 10.3089 4.62162 9.65033 4.62162 8.92591C4.62162 8.22971 4.72697 7.60643 4.93767 7.05606C5.14837 6.50098 5.43501 6.02352 5.79761 5.62368C6.16511 5.21913 6.5865 4.89926 7.0618 4.66405C7.5371 4.42885 8.03934 4.28067 8.56854 4.21952C9.08303 4.16307 9.55588 4.17719 9.98708 4.26186C10.4183 4.34653 10.776 4.47589 11.0602 4.64994C11.3493 4.82399 11.5306 5.0145 11.6041 5.22148H11.6996V4.4312H13.5077V10.9792C13.5077 11.3508 13.6081 11.666 13.809 11.9247C14.0148 12.1835 14.3064 12.3128 14.6837 12.3128C15.1296 12.3128 15.4775 12.1552 15.7274 11.8401C15.9822 11.5249 16.161 11.0404 16.2639 10.3865C16.3717 9.73265 16.4256 8.89534 16.4256 7.87456C16.4256 7.15955 16.3252 6.48687 16.1243 5.85653C15.9283 5.22148 15.6367 4.64759 15.2496 4.13485C14.8674 3.61741 14.397 3.17287 13.8384 2.80125C13.2798 2.42964 12.6429 2.14269 11.9275 1.94042C11.217 1.73814 10.4305 1.63701 9.56813 1.63701C8.39704 1.63701 7.3558 1.81105 6.4444 2.15915C5.53301 2.50255 4.76372 2.99882 4.13652 3.64798C3.51423 4.29714 3.04138 5.07566 2.71799 5.98354C2.39949 6.88671 2.24024 7.90043 2.24024 9.0247C2.24024 10.196 2.40439 11.2356 2.73269 12.1435C3.06098 13.0466 3.54608 13.8087 4.18797 14.4296C4.82987 15.0506 5.62366 15.521 6.56935 15.8408C7.51505 16.1654 8.60529 16.3277 9.84008 16.3277C10.3889 16.3277 10.9279 16.2807 11.4571 16.1866C11.9863 16.0972 12.4567 15.9937 12.8683 15.8761C13.2847 15.7632 13.5959 15.6715 13.8017 15.6009L14.3162 17.1462C14.0124 17.2826 13.6081 17.4167 13.1035 17.5484C12.6037 17.6801 12.0598 17.7883 11.4718 17.873C10.8887 17.9577 10.3129 18 9.74453 18ZM9.06833 12.1294C9.70533 12.1294 10.2174 12.0071 10.6045 11.7624C10.9965 11.5178 11.2782 11.1533 11.4497 10.6688C11.6261 10.1795 11.7143 9.56801 11.7143 8.83418C11.7094 8.11917 11.6139 7.54998 11.4277 7.12662C11.2464 6.69855 10.9622 6.39279 10.5751 6.20933C10.1929 6.02117 9.70043 5.92709 9.09773 5.92709C8.54404 5.92709 8.07119 6.05645 7.67919 6.31517C7.2921 6.57389 6.99565 6.92434 6.78985 7.36652C6.58895 7.8087 6.48605 8.30027 6.48115 8.84124C6.48605 9.41043 6.56935 9.94669 6.73105 10.45C6.89765 10.9486 7.16715 11.3532 7.53955 11.6637C7.91684 11.9741 8.42644 12.1294 9.06833 12.1294Z" fill="#616060"/>
</svg>
