<svg width="26" height="24" viewBox="0 0 26 24" fill="none" xmlns="http://www.w3.org/2000/svg">
<path d="M23.7391 5.71429H20.1557L18.087 3.42857H11.3043V5.71429H17.0922L19.1609 8H23.7391V21.7143H5.65217V11.4286H3.3913V21.7143C3.3913 22.9714 4.4087 24 5.65217 24H23.7391C24.9826 24 26 22.9714 26 21.7143V8C26 6.74286 24.9826 5.71429 23.7391 5.71429ZM9.04348 14.8571C9.04348 18.0114 11.5757 20.5714 14.6957 20.5714C17.8157 20.5714 20.3478 18.0114 20.3478 14.8571C20.3478 11.7029 17.8157 9.14286 14.6957 9.14286C11.5757 9.14286 9.04348 11.7029 9.04348 14.8571ZM14.6957 11.4286C16.5609 11.4286 18.087 12.9714 18.087 14.8571C18.087 16.7429 16.5609 18.2857 14.6957 18.2857C12.8304 18.2857 11.3043 16.7429 11.3043 14.8571C11.3043 12.9714 12.8304 11.4286 14.6957 11.4286ZM5.65217 5.71429H9.04348V3.42857H5.65217V0H3.3913V3.42857H0V5.71429H3.3913V9.14286H5.65217V5.71429Z" fill="black"/>
</svg>
