<svg width="14" height="14" viewBox="0 0 14 14" fill="none" xmlns="http://www.w3.org/2000/svg">
<path d="M4.01897 2.23385V3.12695H12.5035V4.89488L11.5127 8.03902H3.73797L2.62159 0H0V0.893104H1.84392L2.9603 8.93213H12.1676L13.3966 5.03225V2.23385H4.01897Z" fill="black"/>
<path d="M4.49324 9.83398C4.01967 9.83452 3.56566 10.0229 3.23079 10.3577C2.89593 10.6926 2.70757 11.1466 2.70703 11.6202C2.70703 12.0939 2.89522 12.5483 3.2302 12.8832C3.56518 13.2182 4.01951 13.4064 4.49324 13.4064C4.96697 13.4064 5.4213 13.2182 5.75628 12.8832C6.09126 12.5483 6.27945 12.0939 6.27945 11.6202C6.27891 11.1466 6.09055 10.6926 5.75569 10.3577C5.42083 10.0229 4.96681 9.83452 4.49324 9.83398ZM4.49324 12.5133C4.3166 12.5133 4.14393 12.4609 3.99706 12.3628C3.85019 12.2646 3.73572 12.1252 3.66812 11.962C3.60052 11.7988 3.58284 11.6192 3.6173 11.446C3.65176 11.2727 3.73682 11.1136 3.86172 10.9887C3.98662 10.8638 4.14576 10.7787 4.319 10.7442C4.49225 10.7098 4.67182 10.7275 4.83501 10.7951C4.99821 10.8627 5.13769 10.9771 5.23583 11.124C5.33396 11.2709 5.38634 11.4436 5.38634 11.6202C5.38606 11.857 5.29188 12.084 5.12445 12.2514C4.95702 12.4188 4.73002 12.513 4.49324 12.5133Z" fill="black"/>
<path d="M10.7452 9.83398C10.2716 9.83452 9.81761 10.0229 9.48275 10.3577C9.14789 10.6926 8.95952 11.1466 8.95898 11.6202C8.95898 12.0939 9.14717 12.5483 9.48215 12.8832C9.81713 13.2182 10.2715 13.4064 10.7452 13.4064C11.2189 13.4064 11.6733 13.2182 12.0082 12.8832C12.3432 12.5483 12.5314 12.0939 12.5314 11.6202C12.5309 11.1466 12.3425 10.6926 12.0076 10.3577C11.6728 10.0229 11.2188 9.83452 10.7452 9.83398ZM10.7452 12.5133C10.5686 12.5133 10.3959 12.4609 10.249 12.3628C10.1021 12.2646 9.98767 12.1252 9.92007 11.962C9.85247 11.7988 9.83479 11.6192 9.86925 11.446C9.90371 11.2727 9.98877 11.1136 10.1137 10.9887C10.2386 10.8638 10.3977 10.7787 10.571 10.7442C10.7442 10.7098 10.9238 10.7275 11.087 10.7951C11.2502 10.8627 11.3896 10.9771 11.4878 11.124C11.5859 11.2709 11.6383 11.4436 11.6383 11.6202C11.638 11.857 11.5438 12.084 11.3764 12.2514C11.209 12.4188 10.982 12.513 10.7452 12.5133Z" fill="black"/>
</svg>
