<svg width="54" height="54" viewBox="0 0 54 54" fill="none" xmlns="http://www.w3.org/2000/svg">
<circle opacity="0.4" cx="27" cy="27" r="27" fill="#757575"/>
<path d="M35.7391 20.7143H32.1557L30.087 18.4286H23.3043V20.7143H29.0922L31.1609 23H35.7391V36.7143H17.6522V26.4286H15.3913V36.7143C15.3913 37.9714 16.4087 39 17.6522 39H35.7391C36.9826 39 38 37.9714 38 36.7143V23C38 21.7429 36.9826 20.7143 35.7391 20.7143ZM21.0435 29.8571C21.0435 33.0114 23.5757 35.5714 26.6957 35.5714C29.8157 35.5714 32.3478 33.0114 32.3478 29.8571C32.3478 26.7029 29.8157 24.1429 26.6957 24.1429C23.5757 24.1429 21.0435 26.7029 21.0435 29.8571ZM26.6957 26.4286C28.5609 26.4286 30.087 27.9714 30.087 29.8571C30.087 31.7429 28.5609 33.2857 26.6957 33.2857C24.8304 33.2857 23.3043 31.7429 23.3043 29.8571C23.3043 27.9714 24.8304 26.4286 26.6957 26.4286ZM17.6522 20.7143H21.0435V18.4286H17.6522V15H15.3913V18.4286H12V20.7143H15.3913V24.1429H17.6522V20.7143Z" fill="black"/>
</svg>
