<svg width="32" height="29" viewBox="0 0 32 29" fill="none" xmlns="http://www.w3.org/2000/svg">
<path d="M28.875 6.875H24.5163L22 4.125H13.75V6.875H20.79L23.3063 9.625H28.875V26.125H6.875V13.75H4.125V26.125C4.125 27.6375 5.3625 28.875 6.875 28.875H28.875C30.3875 28.875 31.625 27.6375 31.625 26.125V9.625C31.625 8.1125 30.3875 6.875 28.875 6.875ZM11 17.875C11 21.67 14.08 24.75 17.875 24.75C21.67 24.75 24.75 21.67 24.75 17.875C24.75 14.08 21.67 11 17.875 11C14.08 11 11 14.08 11 17.875ZM17.875 13.75C20.1437 13.75 22 15.6062 22 17.875C22 20.1437 20.1437 22 17.875 22C15.6062 22 13.75 20.1437 13.75 17.875C13.75 15.6062 15.6062 13.75 17.875 13.75ZM6.875 6.875H11V4.125H6.875V0H4.125V4.125H0V6.875H4.125V11H6.875V6.875Z" fill="white"/>
</svg>
