<svg width="70" height="21" viewBox="0 0 70 21" fill="none" xmlns="http://www.w3.org/2000/svg">
<path d="M25.0117 10.5059L1.01172 10.5059L10.0117 19.5059M5.51172 6.00586L10.0117 1.50586" stroke="#0E0E0E" stroke-width="1.5" stroke-linecap="round" stroke-linejoin="round"/>
<path d="M40.9757 9.97986C41.3304 10.0359 41.6524 10.1805 41.9417 10.4139C42.2404 10.6472 42.4737 10.9365 42.6417 11.2819C42.8191 11.6272 42.9077 11.9959 42.9077 12.3879C42.9077 12.8825 42.7817 13.3305 42.5297 13.7319C42.2777 14.1239 41.9091 14.4365 41.4237 14.6699C40.9477 14.8939 40.3831 15.0059 39.7297 15.0059H36.0897V5.24786H39.5897C40.2524 5.24786 40.8171 5.35986 41.2837 5.58386C41.7504 5.79853 42.1004 6.09253 42.3337 6.46586C42.5671 6.83919 42.6837 7.25919 42.6837 7.72586C42.6837 8.30453 42.5251 8.78519 42.2077 9.16786C41.8997 9.54119 41.4891 9.81186 40.9757 9.97986ZM37.3637 9.46186H39.5057C40.1031 9.46186 40.5651 9.32186 40.8917 9.04186C41.2184 8.76186 41.3817 8.37453 41.3817 7.87986C41.3817 7.38519 41.2184 6.99786 40.8917 6.71786C40.5651 6.43786 40.0937 6.29786 39.4777 6.29786H37.3637V9.46186ZM39.6177 13.9559C40.2524 13.9559 40.7471 13.8065 41.1017 13.5079C41.4564 13.2092 41.6337 12.7939 41.6337 12.2619C41.6337 11.7205 41.4471 11.2959 41.0737 10.9879C40.7004 10.6705 40.2011 10.5119 39.5757 10.5119H37.3637V13.9559H39.6177ZM44.1997 11.1419C44.1997 10.3579 44.3583 9.67186 44.6757 9.08386C44.993 8.48653 45.427 8.02453 45.9777 7.69786C46.5377 7.37119 47.1583 7.20786 47.8397 7.20786C48.5117 7.20786 49.095 7.35253 49.5897 7.64186C50.0843 7.93119 50.453 8.29519 50.6957 8.73386V7.33386H51.9837V15.0059H50.6957V13.5779C50.4437 14.0259 50.0657 14.3992 49.5617 14.6979C49.067 14.9872 48.4883 15.1319 47.8257 15.1319C47.1443 15.1319 46.5283 14.9639 45.9777 14.6279C45.427 14.2919 44.993 13.8205 44.6757 13.2139C44.3583 12.6072 44.1997 11.9165 44.1997 11.1419ZM50.6957 11.1559C50.6957 10.5772 50.579 10.0732 50.3457 9.64386C50.1123 9.21453 49.795 8.88786 49.3937 8.66386C49.0017 8.43053 48.5677 8.31386 48.0917 8.31386C47.6157 8.31386 47.1817 8.42586 46.7897 8.64986C46.3977 8.87386 46.085 9.20053 45.8517 9.62986C45.6183 10.0592 45.5017 10.5632 45.5017 11.1419C45.5017 11.7299 45.6183 12.2432 45.8517 12.6819C46.085 13.1112 46.3977 13.4425 46.7897 13.6759C47.1817 13.8999 47.6157 14.0119 48.0917 14.0119C48.5677 14.0119 49.0017 13.8999 49.3937 13.6759C49.795 13.4425 50.1123 13.1112 50.3457 12.6819C50.579 12.2432 50.6957 11.7345 50.6957 11.1559ZM53.6606 11.1559C53.6606 10.3625 53.8193 9.67186 54.1366 9.08386C54.4539 8.48653 54.8926 8.02453 55.4526 7.69786C56.0219 7.37119 56.6706 7.20786 57.3986 7.20786C58.3413 7.20786 59.1159 7.43653 59.7226 7.89386C60.3386 8.35119 60.7446 8.98586 60.9406 9.79786H59.5686C59.4379 9.33119 59.1813 8.96253 58.7986 8.69186C58.4253 8.42119 57.9586 8.28586 57.3986 8.28586C56.6706 8.28586 56.0826 8.53786 55.6346 9.04186C55.1866 9.53653 54.9626 10.2412 54.9626 11.1559C54.9626 12.0799 55.1866 12.7939 55.6346 13.2979C56.0826 13.8019 56.6706 14.0539 57.3986 14.0539C57.9586 14.0539 58.4253 13.9232 58.7986 13.6619C59.1719 13.4005 59.4286 13.0272 59.5686 12.5419H60.9406C60.7353 13.3259 60.3246 13.9559 59.7086 14.4319C59.0926 14.8985 58.3226 15.1319 57.3986 15.1319C56.6706 15.1319 56.0219 14.9685 55.4526 14.6419C54.8926 14.3152 54.4539 13.8532 54.1366 13.2559C53.8193 12.6585 53.6606 11.9585 53.6606 11.1559ZM66.9245 15.0059L63.9145 11.6179V15.0059H62.6405V4.64586H63.9145V10.7359L66.8685 7.33386H68.6465L65.0345 11.1559L68.6605 15.0059H66.9245Z" fill="#0E0E0E"/>
</svg>
