<svg width="32" height="32" viewBox="0 0 32 32" fill="none" xmlns="http://www.w3.org/2000/svg">
<circle cx="15.5059" cy="15.5059" r="15.5059" fill="#8EAEE9"/>
<path d="M21.3118 11.9468C21.0979 11.9468 20.9248 12.1199 20.9248 12.3339V22.7849H18.2152V19.3012C18.2152 19.0873 18.0421 18.9141 17.8282 18.9141C17.6142 18.9141 17.4411 19.0873 17.4411 19.3012V22.7849H13.5703V18.14H17.8282C18.0421 18.14 18.2152 17.9668 18.2152 17.7529C18.2152 17.539 18.0421 17.3658 17.8282 17.3658H13.1833C12.9693 17.3658 12.7962 17.539 12.7962 17.7529V22.7849H10.0867V12.3339C10.0867 12.1199 9.91351 11.9468 9.69958 11.9468C9.48564 11.9468 9.3125 12.1199 9.3125 12.3339V23.172C9.3125 23.3859 9.48564 23.559 9.69958 23.559H13.1833H17.8282H21.3118C21.5258 23.559 21.6989 23.3859 21.6989 23.172V12.3339C21.6989 12.1199 21.5258 11.9468 21.3118 11.9468Z" fill="#0E0E0E"/>
<path d="M24.2319 12.0071L15.7162 6.58802C15.5892 6.50712 15.4274 6.50712 15.3004 6.58802L6.78478 12.0071C6.60448 12.122 6.55118 12.3613 6.66611 12.5416C6.78064 12.7212 7.01955 12.7748 7.20062 12.6603L15.5083 7.37347L23.8161 12.6602C23.8808 12.7011 23.9526 12.7207 24.0236 12.7207C24.1514 12.7207 24.2769 12.6572 24.3506 12.5415C24.4655 12.3612 24.4122 12.122 24.2319 12.0071Z" fill="#0E0E0E"/>
</svg>
