<svg width="26" height="22" viewBox="0 0 26 22" fill="none" xmlns="http://www.w3.org/2000/svg">
<path d="M23.6116 2.1756C22.9713 1.57721 22.2111 1.1026 21.3745 0.778896C20.5378 0.455194 19.6411 0.288745 18.7356 0.289063C17.8301 0.289381 16.9335 0.456458 16.0971 0.780748C15.2607 1.10504 14.5009 1.58018 13.8611 2.17903L13.0259 2.96906L12.1977 2.18074L12.1923 2.1757C11.5523 1.57759 10.7925 1.10314 9.95633 0.779442C9.12014 0.455744 8.22392 0.289139 7.31884 0.289139C6.41375 0.289139 5.51753 0.455744 4.68134 0.779442C3.84515 1.10314 3.08537 1.57759 2.44538 2.1757L2.07332 2.52342C0.780811 3.73136 0.0546875 5.36967 0.0546875 7.07795C0.0546875 8.78622 0.780811 10.4245 2.07332 11.6325L11.8931 20.8096L13.002 21.8954L13.0284 21.8706L13.0571 21.8974L14.0961 20.873L23.9837 11.6323C25.2742 10.4234 25.999 8.78547 25.999 7.0778C25.999 5.37012 25.2742 3.73217 23.9837 2.52327L23.6116 2.1756ZM22.7651 10.4937L13.0284 19.5934L3.2916 10.4937C2.32223 9.58776 1.77763 8.35903 1.77763 7.07782C1.77763 5.79662 2.32223 4.56789 3.2916 3.66193L3.66372 3.31422C4.63263 2.40872 5.9466 1.8998 7.31684 1.89932C8.68708 1.89884 10.0015 2.40683 10.9711 3.31165L13.0222 5.26345L15.083 3.31422C15.563 2.86563 16.1329 2.50979 16.76 2.26702C17.3871 2.02425 18.0593 1.89929 18.7381 1.89929C19.4169 1.89929 20.0891 2.02425 20.7162 2.26702C21.3434 2.50979 21.9132 2.86563 22.3932 3.31422L22.7653 3.66188C23.7332 4.56858 24.2768 5.79707 24.2767 7.07784C24.2767 8.3586 23.733 9.58706 22.7651 10.4937Z" fill="#333333"/>
</svg>
