<svg width="54" height="42" viewBox="0 0 54 42" fill="none" xmlns="http://www.w3.org/2000/svg">
<path d="M45.2725 35.3706C45.2725 36.0084 44.8422 36.4674 44.2229 36.4674C43.5851 36.4674 43.1733 35.9798 43.1733 35.3706C43.1733 34.7614 43.5851 34.2737 44.2229 34.2737C44.8422 34.2737 45.2725 34.7614 45.2725 35.3706ZM16.1354 34.2737C15.4688 34.2737 15.0858 34.7614 15.0858 35.3706C15.0858 35.9798 15.4705 36.4674 16.1354 36.4674C16.7445 36.4674 17.1563 36.0084 17.1563 35.3706C17.1462 34.7614 16.7445 34.2737 16.1354 34.2737ZM27.151 34.2467C26.6448 34.2467 26.3343 34.5741 26.2601 35.0618H28.0504C27.9661 34.5269 27.6387 34.2467 27.151 34.2467ZM37.2571 34.2737C36.6193 34.2737 36.2362 34.7614 36.2362 35.3706C36.2362 35.9798 36.621 36.4674 37.2571 36.4674C37.895 36.4674 38.3067 36.0084 38.3067 35.3706C38.3067 34.7614 37.8933 34.2737 37.2571 34.2737ZM47.1844 36.7205C47.1844 36.7492 47.2131 36.7678 47.2131 36.8235C47.2131 36.8522 47.1844 36.8707 47.1844 36.9264C47.1557 36.9551 47.1557 36.9737 47.1372 37.0007C47.1085 37.0293 47.0899 37.0479 47.0342 37.0479C47.0055 37.0766 46.987 37.0766 46.9313 37.0766C46.9026 37.0766 46.884 37.0766 46.8284 37.0479C46.7997 37.0479 46.7811 37.0192 46.7541 37.0007C46.7254 36.972 46.7069 36.9534 46.7069 36.9264C46.6782 36.8792 46.6782 36.8522 46.6782 36.8235C46.6782 36.7762 46.6782 36.7492 46.7069 36.7205C46.7069 36.6733 46.7355 36.6463 46.7541 36.6176C46.7828 36.5889 46.8013 36.5889 46.8284 36.5704C46.8756 36.5417 46.9026 36.5417 46.9313 36.5417C46.9785 36.5417 47.0055 36.5417 47.0342 36.5704C47.0815 36.5974 47.1085 36.5974 47.1372 36.6176C47.1658 36.6379 47.1557 36.6733 47.1844 36.7205ZM46.9785 36.8522C47.0258 36.8522 47.0258 36.8235 47.0528 36.8235C47.0815 36.7948 47.0815 36.7762 47.0815 36.7492C47.0815 36.7222 47.0815 36.702 47.0528 36.675C47.0258 36.675 47.0055 36.6463 46.9498 36.6463H46.7997V36.9737H46.8739V36.842H46.9026L47.0055 36.9737H47.0798L46.9785 36.8522ZM54 4.50042V37.5001C54 39.9841 51.9852 42.0006 49.4996 42.0006H4.50042C2.0165 42.0006 0 39.9857 0 37.5001V4.50042C0 2.0165 2.01481 0 4.50042 0H49.4996C51.9835 0 54 2.01481 54 4.50042ZM6.00225 17.5866C6.00225 24.7582 11.8239 30.5698 18.9855 30.5698C21.5352 30.5698 24.0377 29.8003 26.1571 28.4048C19.323 22.8463 19.3702 12.3555 26.1571 6.79535C24.0377 5.38971 21.5352 4.63035 18.9855 4.63035C11.8239 4.62192 6.00225 10.4419 6.00225 17.5866ZM27.0008 27.7872C33.6106 22.6304 33.5819 12.5816 27.0008 7.39777C20.4198 12.5816 20.3911 22.6405 27.0008 27.7872ZM13.6599 34.9403C13.6599 34.1252 13.125 33.5903 12.2812 33.5616C11.8493 33.5616 11.3903 33.6933 11.0815 34.1708C10.857 33.7861 10.4723 33.5616 9.93738 33.5616C9.58133 33.5616 9.22527 33.6933 8.94347 34.0679V33.6561H8.17568V37.0968H8.94347C8.94347 35.325 8.70891 34.2653 9.78719 34.2653C10.744 34.2653 10.5567 35.2221 10.5567 37.0968H11.2975C11.2975 35.3807 11.0629 34.2653 12.1412 34.2653C13.098 34.2653 12.909 35.2035 12.909 37.0968H13.6784V34.9403H13.6599ZM17.8701 33.6561H17.1293V34.0679C16.8762 33.7591 16.5201 33.5616 16.0324 33.5616C15.0672 33.5616 14.3264 34.3311 14.3264 35.3706C14.3264 36.4202 15.0672 37.1795 16.0324 37.1795C16.5201 37.1795 16.8762 37.0007 17.1293 36.6733V37.1053H17.8701V33.6561ZM21.6668 36.0557C21.6668 34.65 19.5204 35.2862 19.5204 34.6298C19.5204 34.0949 20.6358 34.1809 21.2551 34.5269L21.5639 33.9177C20.683 33.3456 18.7324 33.3558 18.7324 34.6872C18.7324 36.027 20.8788 35.4651 20.8788 36.0928C20.8788 36.6834 19.6132 36.6362 18.9382 36.1671L18.6109 36.7577C19.6604 37.4698 21.6668 37.3196 21.6668 36.054V36.0557ZM24.986 36.9264L24.7802 36.2886C24.4241 36.4843 23.6361 36.7003 23.6361 35.9038V34.348H24.8645V33.6544H23.6361V32.6049H22.8666V33.6544H22.1545V34.3396H22.8666V35.9055C22.8666 37.5558 24.4882 37.2555 24.986 36.9264ZM26.2314 35.6709H28.8098C28.8098 34.1522 28.1162 33.5515 27.178 33.5515C26.1841 33.5515 25.472 34.2923 25.472 35.3605C25.472 37.2825 27.5914 37.6014 28.641 36.6919L28.285 36.1299C27.5543 36.7307 26.4474 36.6733 26.2314 35.6709ZM31.7729 33.6561C31.3426 33.4688 30.6862 33.4874 30.3487 34.0679V33.6561H29.5793V37.0968H30.3487V35.1563C30.3487 34.0679 31.2397 34.2096 31.5485 34.3682L31.7729 33.6561ZM32.7668 35.3706C32.7668 34.3007 33.8553 33.9548 34.7074 34.5825L35.0635 33.9734C33.9751 33.1212 31.9974 33.5886 31.9974 35.379C31.9974 37.2352 34.0966 37.6098 35.0635 36.7847L34.7074 36.1755C33.8451 36.7847 32.7668 36.4202 32.7668 35.3689V35.3706ZM39.0188 33.6561H38.2494V34.0679C37.4715 33.0368 35.4465 33.619 35.4465 35.3706C35.4465 37.1711 37.5457 37.6858 38.2494 36.6733V37.1053H39.0188V33.6561ZM42.1777 33.6561C41.9533 33.5431 41.1467 33.3845 40.7535 34.0679V33.6561H40.0127V37.0968H40.7535V35.1563C40.7535 34.1252 41.5973 34.1911 41.9533 34.3682L42.1777 33.6561ZM45.9559 32.2589H45.2151V34.0679C44.4457 33.047 42.4123 33.5903 42.4123 35.3706C42.4123 37.1896 44.5216 37.6756 45.2151 36.6733V37.1053H45.9559V32.2589ZM46.6697 25.2189V25.6509H46.744V25.2189H46.9212V25.1446H46.4892V25.2189H46.6697ZM47.2873 36.8235C47.2873 36.7762 47.2873 36.7205 47.2603 36.6733C47.2317 36.6446 47.2131 36.599 47.1861 36.5704C47.1591 36.5417 47.1118 36.5231 47.0832 36.4961C47.0359 36.4961 46.9802 36.4674 46.933 36.4674C46.9043 36.4674 46.8587 36.4961 46.8013 36.4961C46.7541 36.5248 46.7271 36.5434 46.6984 36.5704C46.6512 36.5974 46.6242 36.6446 46.6242 36.6733C46.5955 36.7205 46.5955 36.7762 46.5955 36.8235C46.5955 36.8522 46.5955 36.8977 46.6242 36.9551C46.6242 36.9838 46.6529 37.0293 46.6984 37.058C46.7254 37.0867 46.7457 37.1053 46.8013 37.1323C46.8486 37.1593 46.9043 37.1593 46.933 37.1593C46.9802 37.1593 47.0359 37.1593 47.0832 37.1323C47.1118 37.1036 47.1574 37.085 47.1861 37.058C47.2148 37.031 47.2333 36.9838 47.2603 36.9551C47.2873 36.8994 47.2873 36.8522 47.2873 36.8235ZM47.5877 25.1345H47.4561L47.3059 25.4619L47.1557 25.1345H47.0241V25.6408H47.0983V25.256L47.2485 25.5834H47.3515L47.4831 25.256V25.6408H47.586L47.5877 25.1345ZM47.9994 17.5866C47.9994 10.4419 42.1777 4.62192 35.0162 4.62192C32.4665 4.62192 29.964 5.38971 27.8446 6.78691C34.6045 12.3471 34.7074 22.8649 27.8446 28.3964C29.964 29.802 32.485 30.5614 35.0162 30.5614C42.1777 30.5715 47.9994 24.7582 47.9994 17.5866Z" fill="black"/>
</svg>
