<svg width="16" height="18" viewBox="0 0 16 18" fill="none" xmlns="http://www.w3.org/2000/svg">
<path d="M7.99071 14.1765C9.00845 14.1777 10.0147 13.9511 10.9424 13.5115C11.87 13.072 12.6976 12.4298 13.37 11.6278C14.0424 10.8257 14.7148 7.11767 14.7148 7.11767M7.99071 14.1765C6.97296 14.1777 5.96668 13.9511 5.03904 13.5115C4.1114 13.072 3.28377 12.4298 2.6114 11.6278C1.93902 10.8257 1.71484 7.11767 1.71484 7.11767M7.99071 14.1765V17M6.1976 17H9.78381M7.99071 1C9.97131 1 11.5769 1.74434 11.5769 3.82352V7.11764C11.5769 9.19682 9.97131 10.4117 7.99071 10.4117C6.0101 10.4117 4.4045 9.19682 4.4045 7.11764V3.82352C4.4045 1.74434 6.0101 1 7.99071 1Z" stroke="#616060" stroke-width="2" stroke-linecap="round" stroke-linejoin="round"/>
</svg>
