<svg width="20" height="6" viewBox="0 0 20 6" fill="none" xmlns="http://www.w3.org/2000/svg">
<path d="M14.6666 2.6667C14.6666 3.19412 14.823 3.7097 15.116 4.14823C15.409 4.58677 15.8255 4.92857 16.3128 5.1304C16.8001 5.33224 17.3363 5.38505 17.8535 5.28215C18.3708 5.17926 18.846 4.92528 19.2189 4.55234C19.5919 4.17939 19.8459 3.70423 19.9488 3.18694C20.0517 2.66965 19.9988 2.13347 19.797 1.6462C19.5952 1.15892 19.2534 0.74244 18.8148 0.44942C18.3763 0.156399 17.8607 -9.35107e-08 17.3333 -1.16565e-07C16.6263 0.000793898 15.9485 0.282004 15.4485 0.781934C14.9486 1.28186 14.6674 1.95969 14.6666 2.6667ZM18.6667 2.6667C18.6667 2.93041 18.5885 3.1882 18.4419 3.40747C18.2954 3.62673 18.0872 3.79763 17.8436 3.89855C17.5999 3.99947 17.3318 4.02587 17.0732 3.97442C16.8145 3.92298 16.577 3.79599 16.3905 3.60952C16.204 3.42304 16.077 3.18546 16.0256 2.92682C15.9741 2.66818 16.0005 2.40008 16.1014 2.15645C16.2024 1.91281 16.3733 1.70457 16.5925 1.55806C16.8118 1.41155 17.0696 1.33335 17.3333 1.33335C17.6868 1.33375 18.0257 1.47435 18.2757 1.72432C18.5256 1.97428 18.6663 2.31319 18.6667 2.6667Z" fill="#333333"/>
<path d="M5.33398 2.6667C5.33398 2.13928 5.17759 1.6237 4.88456 1.18516C4.59154 0.746625 4.17506 0.404827 3.68779 0.202991C3.20051 0.00115534 2.66433 -0.0516542 2.14704 0.0512409C1.62975 0.154136 1.15459 0.408114 0.781649 0.781058C0.408705 1.154 0.154726 1.62916 0.0518307 2.14645C-0.0510641 2.66374 0.00174508 3.19992 0.203581 3.6872C0.405417 4.17447 0.747215 4.59095 1.18575 4.88397C1.62429 5.177 2.13986 5.33339 2.66729 5.33339C3.3743 5.3326 4.05212 5.05139 4.55205 4.55146C5.05198 4.05153 5.33319 3.37371 5.33398 2.6667ZM1.33394 2.6667C1.33394 2.40299 1.41214 2.1452 1.55865 1.92593C1.70516 1.70666 1.9134 1.53576 2.15704 1.43484C2.40067 1.33393 2.66877 1.30752 2.92741 1.35897C3.18606 1.41042 3.42364 1.53741 3.61011 1.72388C3.79658 1.91035 3.92357 2.14793 3.97502 2.40657C4.02646 2.66522 4.00006 2.93331 3.89914 3.17695C3.79822 3.42059 3.62732 3.62883 3.40806 3.77534C3.18879 3.92185 2.931 4.00005 2.66729 4.00005C2.31378 3.99965 1.97487 3.85904 1.72491 3.60908C1.47494 3.35911 1.33434 3.0202 1.33394 2.6667Z" fill="#333333"/>
<path d="M12.666 2.6667C12.666 2.13928 12.5096 1.6237 12.2166 1.18516C11.9236 0.746625 11.5071 0.404827 11.0198 0.202991C10.5325 0.00115534 9.99636 -0.0516542 9.47907 0.0512409C8.96178 0.154136 8.48662 0.408114 8.11368 0.781058C7.74074 1.154 7.48676 1.62916 7.38386 2.14645C7.28097 2.66374 7.33378 3.19992 7.53561 3.6872C7.73745 4.17447 8.07925 4.59095 8.51778 4.88397C8.95632 5.177 9.4719 5.33339 9.99932 5.33339C10.7063 5.3326 11.3842 5.05139 11.8841 4.55146C12.384 4.05153 12.6652 3.37371 12.666 2.6667ZM8.66597 2.6667C8.66597 2.40299 8.74417 2.1452 8.89068 1.92593C9.03719 1.70666 9.24543 1.53576 9.48907 1.43484C9.73271 1.33393 10.0008 1.30752 10.2594 1.35897C10.5181 1.41042 10.7557 1.53741 10.9421 1.72388C11.1286 1.91035 11.2556 2.14793 11.307 2.40657C11.3585 2.66522 11.3321 2.93331 11.2312 3.17695C11.1303 3.42059 10.9594 3.62883 10.7401 3.77534C10.5208 3.92185 10.263 4.00005 9.99932 4.00005C9.64581 3.99965 9.3069 3.85904 9.05694 3.60908C8.80697 3.35911 8.66637 3.0202 8.66597 2.6667Z" fill="#333333"/>
</svg>
