<svg width="56" height="56" viewBox="0 0 56 56" fill="none" xmlns="http://www.w3.org/2000/svg">
<g clip-path="url(#clip0_3900_22869)">
<path d="M23.3346 38.4994L37.3346 27.9994L23.3346 17.4993V38.4994ZM28.0013 4.66602C15.1213 4.66602 4.66797 15.1193 4.66797 27.9994C4.66797 40.8794 15.1213 51.3327 28.0013 51.3327C40.8813 51.3327 51.3346 40.8794 51.3346 27.9994C51.3346 15.1193 40.8813 4.66602 28.0013 4.66602ZM28.0013 46.666C17.7113 46.666 9.33464 38.2894 9.33464 27.9994C9.33464 17.7094 17.7113 9.33268 28.0013 9.33268C38.2913 9.33268 46.668 17.7094 46.668 27.9994C46.668 38.2894 38.2913 46.666 28.0013 46.666Z" fill="black"/>
</g>
<defs>
<clipPath id="clip0_3900_22869">
<rect width="56" height="56" fill="white"/>
</clipPath>
</defs>
</svg>
