<svg width="20" height="18" viewBox="0 0 20 18" fill="none" xmlns="http://www.w3.org/2000/svg">
<path fill-rule="evenodd" clip-rule="evenodd" d="M4.87152 2.4323C3.03067 2.4323 1.53837 3.84806 1.53837 5.59449V13.3783C1.53837 15.1247 3.03067 16.5405 4.87152 16.5405H13.0762C14.917 16.5405 16.4093 15.1247 16.4093 13.3783V12.4054C16.4093 12.0023 16.7537 11.6756 17.1785 11.6756C17.6033 11.6756 17.9477 12.0023 17.9477 12.4054V13.3783C17.9477 15.9309 15.7667 18 13.0762 18H4.87152C2.18106 18 0 15.9309 0 13.3783V5.59449C0 3.04202 2.18106 0.972831 4.87152 0.972831H6.92268C7.34749 0.972831 7.69187 1.29955 7.69187 1.70257C7.69187 2.10558 7.34749 2.4323 6.92268 2.4323H4.87152Z" fill="#616060"/>
<path fill-rule="evenodd" clip-rule="evenodd" d="M14.3401 0.0484677C14.6374 -0.0597765 14.9743 0.0170111 15.1874 0.241604L19.8025 5.10651C20.0658 5.38403 20.0658 5.80533 19.8025 6.08284L15.1874 10.9478C14.9743 11.1723 14.6374 11.2491 14.3401 11.1409C14.0428 11.0326 13.8465 10.7617 13.8465 10.4596V9.0949C13.8465 8.64917 13.4577 8.28912 12.9891 8.32131C11.3902 8.43118 10.1934 8.72368 9.22715 9.24523C7.97501 9.92097 7.0067 11.0381 6.08188 12.9099C5.92892 13.2195 5.56993 13.3867 5.21817 13.3124C4.86642 13.2381 4.61623 12.942 4.61623 12.6002C4.61627 8.97825 5.61263 6.5002 7.47381 4.94913C8.9601 3.71047 10.8982 3.14865 13.0454 2.97811C13.4918 2.94265 13.8465 2.59616 13.8465 2.17116V0.729769C13.8465 0.427619 14.0428 0.156722 14.3401 0.0484677ZM16.1022 3.38757C15.8499 3.12164 15.3849 3.29095 15.3849 3.64871C15.3849 4.05173 15.0405 4.37845 14.6157 4.37845C11.9977 4.37845 9.91695 4.85565 8.48914 6.04562C8.08909 6.379 7.7279 6.77894 7.41579 7.25833C7.06024 7.80443 7.87829 8.29404 8.46637 7.97666C10.0818 7.10487 12.0688 6.8109 14.6157 6.8109C15.0405 6.8109 15.3849 7.13766 15.3849 7.54067C15.3849 7.89842 15.8499 8.06772 16.1021 7.8018L17.6943 6.12353C17.9795 5.82288 17.9795 5.36647 17.6943 5.06583L16.1022 3.38757Z" fill="#616060"/>
</svg>
