<svg width="23" height="24" viewBox="0 0 23 24" fill="none" xmlns="http://www.w3.org/2000/svg">
<path d="M2.50585 23.066H1.97828e-05V10.5398C-0.00227794 9.68416 0.19561 8.8398 0.57787 8.07424C1.09687 6.92894 1.93464 5.95727 2.99109 5.27536C4.04753 4.59344 5.27796 4.2301 6.53537 4.22876H13.0975V0H15.1331L23 7.86693L15.1052 15.7617H13.0975V11.533H8.82972C7.93702 11.5352 7.06937 11.8284 6.35834 12.3681C5.64731 12.9079 5.13167 13.6648 4.88962 14.5241L2.50585 23.066ZM6.53537 5.76649C5.57156 5.76752 4.62852 6.04665 3.81941 6.57038C3.01031 7.0941 2.36952 7.84018 1.97394 8.71908L1.95991 8.74858C1.68055 9.30426 1.53593 9.9179 1.53775 10.5398V20.8143L3.4085 14.1107C3.74151 12.9285 4.45097 11.887 5.42929 11.1443C6.40761 10.4016 7.60143 9.99822 8.82972 9.99525H14.6352V14.057L20.8254 7.86693L14.6352 1.6768V5.76649H6.53537Z" fill="#333333"/>
</svg>
