<svg width="26" height="18" viewBox="0 0 26 18" fill="none" xmlns="http://www.w3.org/2000/svg">
<path fill-rule="evenodd" clip-rule="evenodd" d="M25.1445 18L0.144531 17.9301V16.7727H25.1445V18Z" fill="#616060"/>
<path d="M3.09795 14.3127H1.28434L6.52987 0H8.31559L13.5611 14.3127H11.7475L7.47854 2.26432H7.36693L3.09795 14.3127ZM3.7676 8.72181H11.0779V10.2593H3.7676V8.72181Z" fill="#616060"/>
<path d="M17.9303 14.5643C17.2513 14.5643 16.6352 14.4362 16.0818 14.1799C15.5284 13.919 15.0889 13.544 14.7634 13.0548C14.4379 12.5609 14.2751 11.9645 14.2751 11.2657C14.2751 10.6507 14.396 10.1521 14.6379 9.7701C14.8797 9.3834 15.2029 9.08056 15.6074 8.86158C16.012 8.6426 16.4584 8.47954 16.9467 8.37238C17.4397 8.26056 17.9349 8.17204 18.4325 8.10681C19.0835 8.02295 19.6113 7.96005 20.0159 7.91812C20.4251 7.87153 20.7228 7.79465 20.9088 7.68749C21.0994 7.58033 21.1948 7.39397 21.1948 7.1284V7.07249C21.1948 6.38295 21.0064 5.84715 20.6298 5.46511C20.2577 5.08306 19.6927 4.89204 18.9347 4.89204C18.1488 4.89204 17.5327 5.06443 17.0862 5.4092C16.6398 5.75397 16.3259 6.12204 16.1446 6.5134L14.5821 5.95431C14.8611 5.30204 15.2331 4.7942 15.6981 4.43079C16.1678 4.06272 16.6793 3.80647 17.2327 3.66204C17.7908 3.51295 18.3395 3.43841 18.8789 3.43841C19.223 3.43841 19.6183 3.48034 20.0648 3.5642C20.5158 3.6434 20.9506 3.8088 21.3692 4.06039C21.7923 4.31198 22.1434 4.6917 22.4225 5.19954C22.7015 5.70738 22.841 6.38761 22.841 7.24022V14.3127H21.1948V12.8591H21.1111C20.9995 13.092 20.8134 13.3413 20.553 13.6069C20.2926 13.8724 19.9462 14.0984 19.5137 14.2848C19.0812 14.4711 18.5534 14.5643 17.9303 14.5643ZM18.1814 13.0827C18.8324 13.0827 19.3812 12.9546 19.8276 12.6983C20.2787 12.4421 20.6181 12.1113 20.846 11.706C21.0785 11.3006 21.1948 10.8743 21.1948 10.427V8.91749C21.125 9.00135 20.9716 9.07823 20.7344 9.14812C20.5019 9.21334 20.2322 9.27158 19.9252 9.32283C19.623 9.36942 19.3277 9.41135 19.0394 9.44863C18.7557 9.48124 18.5255 9.50919 18.3488 9.53249C17.921 9.5884 17.521 9.67925 17.149 9.80505C16.7816 9.92618 16.484 10.1102 16.2562 10.3571C16.0329 10.5994 15.9213 10.9302 15.9213 11.3495C15.9213 11.9226 16.1329 12.3559 16.5561 12.6494C16.9839 12.9383 17.5257 13.0827 18.1814 13.0827Z" fill="#616060"/>
</svg>
