<svg width="21" height="16" viewBox="0 0 21 16" fill="none" xmlns="http://www.w3.org/2000/svg">
<path d="M3.0772 1.29416L1.86194 2.51378C1.67518 2.70121 1.57031 2.95502 1.57031 3.21962V12.7804C1.57031 13.045 1.67518 13.2988 1.86194 13.4862L3.0772 14.7058C3.26484 14.8942 3.51974 15 3.78557 15H12.4051C12.6709 15 12.9258 14.8942 13.1134 14.7058L14.3287 13.4862C14.5154 13.2988 14.6203 13.045 14.6203 12.7804V11.7197C14.6203 10.96 15.4341 10.4777 16.1005 10.8425L18.0901 11.9317C18.7565 12.2965 19.5703 11.8142 19.5703 11.0545V4.63163C19.5703 3.84181 18.6977 3.36373 18.0321 3.78884L16.1586 4.98535C15.4929 5.41047 14.6203 4.93238 14.6203 4.14256V3.21962C14.6203 2.95502 14.5154 2.70121 14.3287 2.51378L13.1134 1.29416C12.9258 1.10585 12.6709 1 12.4051 1H3.78557C3.51974 1 3.26484 1.10585 3.0772 1.29416Z" stroke="#616060" stroke-width="2"/>
</svg>
