<svg width="54" height="42" viewBox="0 0 54 42" fill="none" xmlns="http://www.w3.org/2000/svg">
<path d="M44.0722 18.6849C44.0722 18.6849 44.7843 22.1728 44.9446 22.9034H41.8144C42.1232 22.0681 43.3145 18.8249 43.3145 18.8249C43.2959 18.8536 43.6233 17.9711 43.8106 17.4277L44.0722 18.6849ZM53.9993 4.50036V37.4996C53.9993 39.9835 51.9845 42 49.4989 42H4.50036C2.01647 42 0 39.9852 0 37.4996V4.50036C0 2.01647 2.01478 0 4.50036 0H49.4989C51.9828 0 53.9993 2.01479 53.9993 4.50036ZM14.2976 28.0501L20.2221 13.5011H16.2381L12.5544 23.4383L12.1511 21.4235L10.8383 14.7295C10.6223 13.8014 9.95749 13.5382 9.13234 13.5011H3.06774L3.00193 13.7913C4.48349 14.1659 5.80474 14.7093 6.95725 15.3944L10.3135 28.0501H14.2976ZM23.1481 28.0686L25.5105 13.5011H21.7425L19.3902 28.0686H23.1481ZM36.2628 23.3067C36.2813 21.648 35.2689 20.3824 33.1039 19.3413C31.7826 18.6747 30.9761 18.2259 30.9761 17.5408C30.9946 16.9215 31.6611 16.2836 33.141 16.2836C34.3695 16.255 35.2689 16.5469 35.9438 16.8371L36.2813 16.9957L36.7977 13.8453C36.0569 13.5551 34.8757 13.226 33.4228 13.226C29.7004 13.226 27.0849 15.2138 27.0663 18.0436C27.0376 20.1343 28.941 21.297 30.3669 21.999C31.8198 22.711 32.3176 23.1802 32.3176 23.8079C32.299 24.7832 31.1364 25.2321 30.0581 25.2321C28.558 25.2321 27.7514 24.9975 26.5229 24.4542L26.0268 24.2196L25.5021 27.4915C26.3829 27.8948 28.0146 28.2509 29.702 28.2694C33.6574 28.2779 36.2358 26.3188 36.2644 23.3016L36.2628 23.3067ZM49.4989 28.0686L46.4616 13.5011H43.5457C42.6463 13.5011 41.9612 13.7643 41.5765 14.711L35.9793 28.0703H39.9346C39.9346 28.0703 40.5809 26.2698 40.7226 25.8868H45.5605C45.6735 26.4031 46.011 28.0703 46.011 28.0703L49.4989 28.0686Z" fill="black"/>
</svg>
